<svg width="48" height="30" viewBox="0 0 48 30" fill="none" xmlns="http://www.w3.org/2000/svg">
  <rect width="48" height="30" rx="4" fill="#FFFFFF" fill-opacity="0.05"/>
  <path d="M18.118 19.772H15.237L13.338 12.607C13.267 12.338 13.114 12.108 12.882 11.991C12.184 11.647 11.429 11.417 10.616 11.303V11.016H15.354C16.052 11.016 16.574 11.533 16.691 12.165L17.77 16.905L20.075 11.016H22.838L19.078 19.772H18.118ZM24.328 19.772H21.681L23.718 11.016H26.365L24.328 19.772ZM31.072 13.468C31.189 12.837 30.842 12.319 30.143 12.319C29.04 12.319 27.937 13.354 27.53 14.962L26.451 19.772H23.804L25.841 11.016H28.371L28.255 11.762C28.835 11.131 29.793 10.844 30.665 10.844C32.463 10.844 33.566 12.165 33.219 14.044L32.023 19.772H29.377L31.072 13.468Z" fill="#1434CB" fill-opacity="0.8"/>
</svg> 